# xmcd CD database file
#
# Track frame offsets:
#	150
#	17954
#	30977
#	48687
#	63925
#	77474
#	91941
#	108126
#	122052
#	132958
#	150202
#	162405
#
# Disc length: 2381 seconds
#
# Revision: 6
# Processed by: cddbd v1.5.2PL0 Copyright (c) Steve Scherf et al.
# Submitted via: CDex 1.51
#
DISCID=87094b0c
DTITLE=Buffalo Trio - Buffalo Trio
DYEAR=2008
DGENRE=Country
TTITLE0=Buffalo Trio - DOMINADO POR ELA
TTITLE1=Buffalo Trio - BAILE DO CAIPORA
TTITLE2=Buffalo Trio - CIDADE DEVASTADA
TTITLE3=Buffalo Trio - NO BATIDÃO DA VIOLA
TTITLE4=Buffalo Trio - AQUI NÃO PICA PAU
TTITLE5=Buffalo Trio - LEMBRANÇAS
TTITLE6=Buffalo Trio - FLAGRA
TTITLE7=Buffalo Trio - NAS RUAS DESSA VIDA
TTITLE8=Buffalo Trio - QUERO SENTIR ( UMA NOVA EMOÇÃO)
TTITLE9=Buffalo Trio - DE UMA CHANCE
TTITLE10=Buffalo Trio - DANÇAR FAZ BEM
TTITLE11=Buffalo Trio - FESTA DE PEÃO
EXTD=YEAR: 2008
EXTT0=
EXTT1=
EXTT2=
EXTT3=
EXTT4=
EXTT5=
EXTT6=
EXTT7=
EXTT8=
EXTT9=
EXTT10=
EXTT11=
PLAYORDER=
